<svg viewBox="0 0 1440 560" xmlns="http://www.w3.org/2000/svg" preserveAspectRatio="xMidYMid slice">
  <defs>
    <linearGradient id="peakGradientDark" x1="0" y1="0" x2="0" y2="1">
      <stop offset="0%" stop-color="#ffffff" stop-opacity="0.8"/>
      <stop offset="100%" stop-color="#ffffff" stop-opacity="0"/>
    </linearGradient>
  </defs>

  <rect width="1440" height="560" fill="#0b0c10"/>

  <!-- 最远的山 -->
  <path d="M0 400 Q 240 300 480 360 T 960 340 T 1440 380 L1440 560 L0 560Z"
        fill="url(#peakGradientDark)" opacity="0.15"/>

  <!-- 中景山 -->
  <path d="M0 420 Q 180 340 360 390 T 720 360 T 1080 400 T 1440 380 L1440 560 L0 560Z"
        fill="url(#peakGradientDark)" opacity="0.25"/>

  <!-- 近景山 -->
  <path d="M0 460 Q 200 380 400 420 T 800 400 T 1200 440 T 1440 420 L1440 560 L0 560Z"
        fill="url(#peakGradientDark)" opacity="0.35"/>

  <!-- 最前景山 -->
  <path d="M0 500 Q 160 440 320 480 T 640 460 T 960 480 T 1440 460 L1440 560 L0 560Z"
        fill="url(#peakGradientDark)" opacity="0.45"/>
</svg>